<svg width="24" height="24" viewBox="0 0 24 24" fill="none" xmlns="http://www.w3.org/2000/svg">
<path fill-rule="evenodd" clip-rule="evenodd" d="M18.1317 6.81107V6.28731C18.1318 5.93102 18.0516 5.57924 17.897 5.25792C17.7425 4.9366 17.5175 4.65393 17.2386 4.43076C16.9598 4.20758 16.6342 4.04959 16.2859 3.96843C15.9375 3.88727 15.5754 3.88502 15.2261 3.96184C15.1274 3.4118 14.8376 2.91386 14.4074 2.5552C13.9772 2.19653 13.4341 2 12.8731 2C12.3121 2 11.769 2.19653 11.3388 2.5552C10.9086 2.91386 10.6188 3.4118 10.5201 3.96184C10.1708 3.88502 9.80862 3.88727 9.4603 3.96843C9.11198 4.04959 8.78639 4.20758 8.50753 4.43076C8.22868 4.65393 8.00368 4.9366 7.84912 5.25792C7.69455 5.57924 7.61437 5.93102 7.61449 6.28731V11.0125C7.3589 10.7969 7.07989 10.6103 6.78267 10.4564C5.80744 9.96313 4.8609 10.0393 3.86368 10.445C3.06055 10.7735 2.80527 11.6906 3.14946 12.3762L5.86672 17.789C6.50192 19.0542 7.47823 20.1182 8.6863 20.862C9.89438 21.6057 11.2865 21.9998 12.7067 22H13.3511C15.3797 22 17.3253 21.1974 18.7597 19.7687C20.1941 18.34 21 16.4022 21 14.3817V9.14417C21.0001 8.7911 20.9213 8.44243 20.7694 8.12343C20.6175 7.80443 20.3962 7.52307 20.1217 7.29974C19.8471 7.07642 19.5261 6.91671 19.1819 6.83219C18.8377 6.74767 18.479 6.74046 18.1317 6.81107ZM10.4828 6.28731C10.4828 6.16103 10.4324 6.03992 10.3428 5.95063C10.2531 5.86134 10.1315 5.81117 10.0048 5.81117C9.87797 5.81117 9.75638 5.86134 9.66672 5.95063C9.57707 6.03992 9.5267 6.16103 9.5267 6.28731V13.4294C9.52655 13.6266 9.46496 13.8188 9.35044 13.9796C9.23592 14.1405 9.07412 14.2619 8.88735 14.3272C8.70058 14.3925 8.49807 14.3985 8.30775 14.3443C8.11744 14.2901 7.9487 14.1784 7.82483 14.0246C6.94043 12.9238 6.37442 12.3867 5.9174 12.1543C5.67357 12.0222 5.38993 11.9827 5.11905 12.0429L7.57624 16.9377C8.05274 17.8865 8.78508 18.6845 9.69122 19.2422C10.5974 19.8 11.6415 20.0954 12.7067 20.0954H13.3511C14.8726 20.0954 16.3317 19.4935 17.4076 18.4219C18.4834 17.3504 19.0878 15.8971 19.0878 14.3817V9.14417C19.0878 9.01788 19.0374 8.89678 18.9478 8.80748C18.8581 8.71819 18.7365 8.66802 18.6097 8.66802C18.4829 8.66802 18.3613 8.71819 18.2717 8.80748C18.182 8.89678 18.1317 9.01788 18.1317 9.14417V11.5249C18.1317 11.7774 18.0309 12.0197 17.8516 12.1982C17.6723 12.3768 17.4291 12.4772 17.1756 12.4772C16.922 12.4772 16.6788 12.3768 16.4995 12.1982C16.3202 12.0197 16.2195 11.7774 16.2195 11.5249V6.28731C16.2195 6.16103 16.1691 6.03992 16.0794 5.95063C15.9898 5.86134 15.8682 5.81117 15.7414 5.81117C15.6146 5.81117 15.493 5.86134 15.4034 5.95063C15.3137 6.03992 15.2634 6.16103 15.2634 6.28731V10.5726C15.2634 10.8252 15.1626 11.0674 14.9833 11.246C14.804 11.4245 14.5608 11.5249 14.3072 11.5249C14.0537 11.5249 13.8105 11.4245 13.6312 11.246C13.4519 11.0674 13.3511 10.8252 13.3511 10.5726V4.38275C13.3511 4.25646 13.3008 4.13536 13.2111 4.04606C13.1215 3.95677 12.9999 3.9066 12.8731 3.9066C12.7463 3.9066 12.6247 3.95677 12.535 4.04606C12.4454 4.13536 12.395 4.25646 12.395 4.38275V11.5249C12.395 11.7774 12.2943 12.0197 12.115 12.1982C11.9357 12.3768 11.6925 12.4772 11.4389 12.4772C11.1853 12.4772 10.9422 12.3768 10.7629 12.1982C10.5835 12.0197 10.4828 11.7774 10.4828 11.5249V6.28731Z" fill="#999999"/>
</svg>
