<svg width="24" height="24" viewBox="0 0 24 24" fill="none" xmlns="http://www.w3.org/2000/svg">
<path d="M11.9994 21.5H22M15.333 4.73503L18.6665 8.08803M16.8619 3.19489C17.3043 2.74996 17.9042 2.5 18.5298 2.5C19.1554 2.5 19.7553 2.74996 20.1977 3.19489C20.64 3.63982 20.8885 4.24328 20.8885 4.87251C20.8885 5.50173 20.64 6.10519 20.1977 6.55012L6.85249 19.9744C6.58814 20.2403 6.26137 20.4348 5.90244 20.5399L2.71115 21.4765C2.61554 21.5046 2.51418 21.5063 2.4177 21.4814C2.32122 21.4565 2.23315 21.406 2.16273 21.3352C2.0923 21.2644 2.0421 21.1758 2.01738 21.0787C1.99266 20.9817 1.99434 20.8797 2.02222 20.7836L2.95339 17.5736C3.05808 17.213 3.25146 16.8847 3.51564 16.6192L16.8619 3.19489Z" stroke="#999999" stroke-width="2" stroke-linecap="round" stroke-linejoin="round"/>
</svg>
