<svg width="74" height="64" viewBox="0 0 74 64" fill="none" xmlns="http://www.w3.org/2000/svg">
<path d="M72.2276 33.7067V62.1031H67.2553L55.4097 44.2305H55.2103V62.1031H49.4537V33.7067H54.5057L66.2582 51.5654H66.4975V33.7067H72.2276Z" fill="#6825DA"/>
<path d="M47.8095 47.9049C47.8095 51.0015 47.2467 53.6359 46.1211 55.8082C45.0043 57.9804 43.4799 59.6397 41.5477 60.7859C39.6244 61.9228 37.4618 62.4913 35.0599 62.4913C32.6402 62.4913 30.4687 61.9182 28.5454 60.772C26.6221 59.6258 25.1021 57.9666 23.9853 55.7943C22.8686 53.6221 22.3102 50.9923 22.3102 47.9049C22.3102 44.8083 22.8686 42.1738 23.9853 40.0016C25.1021 37.8293 26.6221 36.1747 28.5454 35.0378C30.4687 33.8916 32.6402 33.3184 35.0599 33.3184C37.4618 33.3184 39.6244 33.8916 41.5477 35.0378C43.4799 36.1747 45.0043 37.8293 46.1211 40.0016C47.2467 42.1738 47.8095 44.8083 47.8095 47.9049ZM41.9731 47.9049C41.9731 45.899 41.6851 44.2074 41.109 42.8301C40.5417 41.4528 39.7396 40.4083 38.7026 39.6966C37.6656 38.9848 36.4514 38.6289 35.0599 38.6289C33.6683 38.6289 32.4541 38.9848 31.4171 39.6966C30.3801 40.4083 29.5735 41.4528 28.9974 42.8301C28.4302 44.2074 28.1466 45.899 28.1466 47.9049C28.1466 49.9108 28.4302 51.6023 28.9974 52.9796C29.5735 54.3569 30.3801 55.4015 31.4171 56.1132C32.4541 56.825 33.6683 57.1809 35.0599 57.1809C36.4514 57.1809 37.6656 56.825 38.7026 56.1132C39.7396 55.4015 40.5417 54.3569 41.109 52.9796C41.6851 51.6023 41.9731 49.9108 41.9731 47.9049Z" fill="#6825DA"/>
<path d="M15.6479 41.8734C15.5416 40.7549 15.0851 39.886 14.2786 39.2667C13.472 38.6474 12.3774 38.3377 10.9948 38.3377C10.0553 38.3377 9.26201 38.4764 8.615 38.7537C7.96799 39.0218 7.47165 39.3961 7.12599 39.8768C6.78919 40.3575 6.62079 40.9028 6.62079 41.5129C6.60306 42.0213 6.70499 42.465 6.92657 42.844C7.15701 43.223 7.47165 43.5511 7.8705 43.8284C8.26934 44.0965 8.73022 44.3322 9.25315 44.5356C9.77608 44.7297 10.3345 44.8961 10.9283 45.0347L13.3745 45.6448C14.5622 45.9221 15.6524 46.2919 16.645 46.7541C17.6377 47.2162 18.4974 47.7847 19.2242 48.4595C19.951 49.1343 20.5138 49.9292 20.9127 50.8444C21.3204 51.7595 21.5286 52.8086 21.5375 53.9918C21.5286 55.7296 21.1032 57.2363 20.2612 58.5119C19.4281 59.7783 18.2227 60.7628 16.645 61.4653C15.0763 62.1586 13.184 62.5052 10.9682 62.5052C8.77011 62.5052 6.85566 62.1539 5.22484 61.4514C3.60288 60.7489 2.33545 59.709 1.42254 58.3317C0.518496 56.9452 0.0443159 55.2305 0 53.1876H5.5705C5.63255 54.1397 5.89401 54.9347 6.35489 55.5725C6.82464 56.201 7.44949 56.6771 8.22945 57.0006C9.01828 57.3149 9.90903 57.472 10.9017 57.472C11.8766 57.472 12.7231 57.3241 13.441 57.0283C14.1678 56.7326 14.7306 56.3212 15.1294 55.7943C15.5283 55.2674 15.7277 54.662 15.7277 53.978C15.7277 53.3401 15.546 52.804 15.1826 52.3696C14.8281 51.9351 14.3052 51.5654 13.6138 51.2603C12.9314 50.9553 12.0938 50.678 11.1011 50.4284L8.13639 49.6519C5.84083 49.0696 4.02831 48.1591 2.69884 46.9204C1.36936 45.6818 0.709054 44.0133 0.717917 41.915C0.709054 40.1957 1.14778 38.6936 2.0341 37.4088C2.92928 36.1239 4.15683 35.121 5.71675 34.4C7.27666 33.6789 9.0493 33.3184 11.0346 33.3184C13.0555 33.3184 14.8192 33.6789 16.326 34.4C17.8416 35.121 19.0204 36.1239 19.8624 37.4088C20.7044 38.6936 21.1387 40.1818 21.1653 41.8734H15.6479Z" fill="#6825DA"/>
<path d="M48.6347 29.8909V1.49449H54.3913V14.015H54.7503L64.5485 1.49449H71.4485L61.3445 14.2091L71.5682 29.8909H64.6815L57.2231 18.2162L54.3913 21.8212V29.8909H48.6347Z" fill="#6825DA"/>
<path d="M39.0313 1.49449V29.8909H33.2747V1.49449H39.0313Z" fill="#6825DA"/>
<path d="M23.6514 1.49449V29.8909H18.6791L6.8335 12.0184H6.63408V29.8909H0.877454V1.49449H5.92946L17.682 19.3532H17.9213V1.49449H23.6514Z" fill="#6825DA"/>
</svg>
