<svg width="48" height="48" viewBox="0 0 48 48" fill="none" xmlns="http://www.w3.org/2000/svg">
<path d="M0 24C0 10.7452 10.7452 0 24 0C37.2548 0 48 10.7452 48 24C48 37.2548 37.2548 48 24 48C10.7452 48 0 37.2548 0 24Z" fill="white" fill-opacity="0.1"/>
<path fill-rule="evenodd" clip-rule="evenodd" d="M14 24C14 24.5232 14.4975 24.9474 15.1111 24.9474H30.2064L26.1773 28.3827C25.7434 28.7527 25.7434 29.3526 26.1773 29.7225C26.6112 30.0925 27.3147 30.0925 27.7486 29.7225L33.6746 24.6699C34.1085 24.2999 34.1085 23.7001 33.6746 23.3301L27.7486 18.2775C27.3147 17.9075 26.6112 17.9075 26.1773 18.2775C25.7434 18.6474 25.7434 19.2473 26.1773 19.6173L30.2064 23.0526H15.1111C14.4975 23.0526 14 23.4768 14 24Z" fill="white"/>
</svg>
