<svg width="48" height="48" viewBox="0 0 48 48" fill="none" xmlns="http://www.w3.org/2000/svg">
<path d="M0 24C0 10.7452 10.7452 0 24 0C37.2548 0 48 10.7452 48 24C48 37.2548 37.2548 48 24 48C10.7452 48 0 37.2548 0 24Z" fill="white" fill-opacity="0.1"/>
<path fill-rule="evenodd" clip-rule="evenodd" d="M24 34C24.5232 34 24.9474 33.5025 24.9474 32.8889V17.7936L28.3827 21.8227C28.7527 22.2566 29.3526 22.2566 29.7225 21.8227C30.0925 21.3888 30.0925 20.6853 29.7225 20.2514L24.6699 14.3254C24.2999 13.8915 23.7001 13.8915 23.3301 14.3254L18.2775 20.2514C17.9075 20.6853 17.9075 21.3888 18.2775 21.8227C18.6474 22.2566 19.2473 22.2566 19.6173 21.8227L23.0526 17.7936V32.8889C23.0526 33.5025 23.4768 34 24 34Z" fill="white"/>
</svg>
