<svg width="48" height="48" viewBox="0 0 48 48" fill="none" xmlns="http://www.w3.org/2000/svg">
<path d="M0 24C0 10.7452 10.7452 0 24 0C37.2548 0 48 10.7452 48 24C48 37.2548 37.2548 48 24 48C10.7452 48 0 37.2548 0 24Z" fill="white" fill-opacity="0.1"/>
<path fill-rule="evenodd" clip-rule="evenodd" d="M34 24C34 24.5232 33.5025 24.9474 32.8889 24.9474H17.7936L21.8227 28.3827C22.2566 28.7527 22.2566 29.3526 21.8227 29.7225C21.3888 30.0925 20.6853 30.0925 20.2514 29.7225L14.3254 24.6699C13.8915 24.2999 13.8915 23.7001 14.3254 23.3301L20.2514 18.2775C20.6853 17.9075 21.3888 17.9075 21.8227 18.2775C22.2566 18.6474 22.2566 19.2473 21.8227 19.6173L17.7936 23.0526H32.8889C33.5025 23.0526 34 23.4768 34 24Z" fill="white"/>
</svg>
