<svg width="48" height="48" viewBox="0 0 48 48" fill="none" xmlns="http://www.w3.org/2000/svg">
<path d="M0 24C0 10.7452 10.7452 0 24 0C37.2548 0 48 10.7452 48 24C48 37.2548 37.2548 48 24 48C10.7452 48 0 37.2548 0 24Z" fill="white" fill-opacity="0.1"/>
<path fill-rule="evenodd" clip-rule="evenodd" d="M24 14C24.5232 14 24.9474 14.4975 24.9474 15.1111V30.2064L28.3827 26.1773C28.7527 25.7434 29.3526 25.7434 29.7225 26.1773C30.0925 26.6112 30.0925 27.3147 29.7225 27.7486L24.6699 33.6746C24.2999 34.1085 23.7001 34.1085 23.3301 33.6746L18.2775 27.7486C17.9075 27.3147 17.9075 26.6112 18.2775 26.1773C18.6474 25.7434 19.2473 25.7434 19.6173 26.1773L23.0526 30.2064V15.1111C23.0526 14.4975 23.4768 14 24 14Z" fill="white"/>
</svg>
