<svg width="24" height="24" viewBox="0 0 24 24" fill="none" xmlns="http://www.w3.org/2000/svg">
<path d="M9.12651 7.33109C8.99213 6.88672 8.96434 6.41735 9.04536 5.96043C9.12638 5.50352 9.31396 5.07172 9.59313 4.69951C9.8723 4.32731 10.2353 4.025 10.6532 3.81673C11.0711 3.60846 11.5323 3.5 12 3.5C12.4677 3.5 12.9289 3.60846 13.3468 3.81673C13.7647 4.025 14.1277 4.32731 14.4069 4.69951C14.686 5.07172 14.8736 5.50352 14.9546 5.96043C15.0357 6.41735 15.0079 6.88672 14.8735 7.33109L13.2969 12.5421C13.2263 12.7761 13.191 12.8931 13.1366 12.9891C13.0674 13.1116 12.9729 13.2183 12.8593 13.3022C12.7457 13.3861 12.6155 13.4454 12.4773 13.476C12.3684 13.5 12.2455 13.5 11.9995 13.5C11.7535 13.5 11.6305 13.5 11.5217 13.476C11.3835 13.4454 11.2533 13.3861 11.1397 13.3022C11.0261 13.2183 10.9316 13.1116 10.8624 12.9891C10.808 12.8931 10.7717 12.7761 10.7011 12.5421L9.12651 7.33109Z" stroke="url(#paint0_linear_219_39445)" stroke-width="2"/>
<path d="M11.9995 20.5C13.113 20.5 14.0156 19.6046 14.0156 18.5C14.0156 17.3955 13.113 16.5 11.9995 16.5C10.886 16.5 9.98337 17.3955 9.98337 18.5C9.98337 19.6046 10.886 20.5 11.9995 20.5Z" stroke="url(#paint1_linear_219_39445)" stroke-width="2"/>
<defs>
<linearGradient id="paint0_linear_219_39445" x1="9" y1="3.5" x2="15.8704" y2="3.85938" gradientUnits="userSpaceOnUse">
<stop stop-color="#C93134"/>
<stop offset="1" stop-color="#DE5658"/>
</linearGradient>
<linearGradient id="paint1_linear_219_39445" x1="9" y1="3.5" x2="15.8704" y2="3.85938" gradientUnits="userSpaceOnUse">
<stop stop-color="#C93134"/>
<stop offset="1" stop-color="#DE5658"/>
</linearGradient>
</defs>
</svg>
