<svg width="24" height="24" viewBox="0 0 24 24" fill="none" xmlns="http://www.w3.org/2000/svg">
<path d="M13.8077 10.5753L12.7944 10.0946C12.711 10.0556 12.6403 9.99277 12.5906 9.91363C12.541 9.83449 12.5147 9.74238 12.5147 9.64828C12.5147 9.55418 12.541 9.46206 12.5906 9.38292C12.6403 9.30378 12.711 9.24096 12.7944 9.20194L13.8077 8.72128L14.2761 7.69129C14.3141 7.60566 14.3753 7.53306 14.4524 7.48215C14.5295 7.43124 14.6193 7.40417 14.711 7.40417C14.8027 7.40417 14.8924 7.43124 14.9696 7.48215C15.0467 7.53306 15.1079 7.60566 15.1459 7.69129L15.6143 8.73109L16.618 9.21175C16.7014 9.25077 16.7721 9.31359 16.8218 9.39273C16.8714 9.47187 16.8977 9.56399 16.8977 9.65809C16.8977 9.75219 16.8714 9.8443 16.8218 9.92344C16.7721 10.0026 16.7014 10.0654 16.618 10.1044L15.6047 10.5851L15.1363 11.6151C15.0983 11.7007 15.0371 11.7733 14.96 11.8242C14.8829 11.8751 14.7931 11.9022 14.7014 11.9022C14.6097 11.9022 14.52 11.8751 14.4428 11.8242C14.3657 11.7733 14.3045 11.7007 14.2665 11.6151L13.8077 10.5753ZM4.62168 13.577L5.09006 12.5372L6.1033 12.0565C6.18674 12.0175 6.25748 11.9547 6.30709 11.8755C6.3567 11.7964 6.38308 11.7043 6.38308 11.6102C6.38308 11.5161 6.3567 11.424 6.30709 11.3448C6.25748 11.2657 6.18674 11.2029 6.1033 11.1638L5.09006 10.6832L4.62168 9.65318C4.58484 9.56764 4.52457 9.49493 4.44821 9.44389C4.37184 9.39284 4.28267 9.36567 4.19154 9.36567C4.1004 9.36567 4.01123 9.39284 3.93487 9.44389C3.85851 9.49493 3.79824 9.56764 3.76139 9.65318L3.29301 10.693L2.27978 11.1736C2.19634 11.2127 2.12559 11.2755 2.07599 11.3546C2.02638 11.4338 2 11.5259 2 11.62C2 11.7141 2.02638 11.8062 2.07599 11.8853C2.12559 11.9645 2.19634 12.0273 2.27978 12.0663L3.29301 12.547L3.76139 13.577C3.92389 13.9595 4.45918 13.9595 4.62168 13.577ZM8.9327 8.66242L9.5349 7.2891L10.8731 6.6711C10.9566 6.63209 11.0273 6.56926 11.0769 6.49012C11.1265 6.41099 11.1529 6.31887 11.1529 6.22477C11.1529 6.13067 11.1265 6.03856 11.0769 5.95942C11.0273 5.88028 10.9566 5.81746 10.8731 5.77844L9.5349 5.16044L8.9327 3.78712C8.89468 3.70149 8.83346 3.62889 8.75634 3.57798C8.67923 3.52707 8.58947 3.5 8.49777 3.5C8.40608 3.5 8.31632 3.52707 8.2392 3.57798C8.16208 3.62889 8.10086 3.70149 8.06285 3.78712L7.46064 5.16044L6.12241 5.77844C6.03897 5.81746 5.96823 5.88028 5.91862 5.95942C5.86901 6.03856 5.84263 6.13067 5.84263 6.22477C5.84263 6.31887 5.86901 6.41099 5.91862 6.49012C5.96823 6.56926 6.03897 6.63209 6.12241 6.6711L7.46064 7.2891L8.06285 8.66242C8.22535 9.04499 8.76064 9.04499 8.9327 8.66242ZM21.7223 8.93709C21.6305 8.84311 21.5209 8.76929 21.4004 8.72015C21.2798 8.671 21.1508 8.64755 21.0211 8.65122C20.8915 8.65489 20.7639 8.68561 20.6461 8.7415C20.5284 8.79739 20.423 8.87729 20.3363 8.97633L14.2283 16.0195L11.0834 12.7922C10.995 12.7013 10.8899 12.6291 10.7743 12.5799C10.6587 12.5307 10.5347 12.5053 10.4095 12.5053C10.2843 12.5053 10.1604 12.5307 10.0447 12.5799C9.92911 12.6291 9.82407 12.7013 9.73563 12.7922L3.96213 18.7269C3.57022 19.1291 3.57022 19.7962 3.96213 20.1984C4.35404 20.6005 5.00404 20.6005 5.39595 20.1984L10.4143 15.0386L13.5209 18.2267C13.9128 18.6288 14.5437 18.6092 14.9069 18.1874L21.7606 10.2712C22.0951 9.88861 22.076 9.30004 21.7223 8.93709Z" fill="#6825DA"/>
</svg>
