<svg width="24" height="24" viewBox="0 0 24 24" fill="none" xmlns="http://www.w3.org/2000/svg">
<path d="M3 11C2.44772 11 2 11.4477 2 12C2 12.5523 2.44772 13 3 13V11ZM11.4216 8.64604C11.0312 8.2554 10.398 8.25522 10.0074 8.64563C9.61674 9.03605 9.61656 9.66921 10.007 10.0598L11.4216 8.64604ZM10.007 13.9402C9.61656 14.3308 9.61674 14.964 10.0074 15.3544C10.398 15.7448 11.0312 15.7446 11.4216 15.354L10.007 13.9402ZM12.2571 2C11.7049 2 11.2571 2.44772 11.2571 3C11.2571 3.55228 11.7049 4 12.2571 4V2ZM12.2571 20C11.7049 20 11.2571 20.4477 11.2571 21C11.2571 21.5523 11.7049 22 12.2571 22V20ZM13.2857 11H3V13H13.2857V11ZM14.2857 12C14.2857 11.6862 14.1808 11.4201 14.0838 11.2335C13.983 11.0394 13.8542 10.8624 13.7276 10.7093C13.4751 10.4042 13.1543 10.1033 12.8524 9.84001C12.5463 9.57306 12.2248 9.31493 11.9643 9.10423C11.6812 8.87539 11.5053 8.72975 11.4216 8.64604L10.007 10.0598C10.1834 10.2364 10.4589 10.459 10.7068 10.6595C10.9771 10.878 11.2659 11.1101 11.5377 11.3472C11.8137 11.5879 12.0382 11.8048 12.1866 11.9843C12.2604 12.0735 12.2959 12.1303 12.3093 12.156C12.3265 12.1891 12.2857 12.1285 12.2857 12H14.2857ZM11.4216 15.354C11.5053 15.2702 11.6812 15.1246 11.9643 14.8958C12.2248 14.6851 12.5463 14.4269 12.8524 14.16C13.1543 13.8967 13.4751 13.5958 13.7276 13.2907C13.8542 13.1376 13.983 12.9606 14.0838 12.7665C14.1808 12.5799 14.2857 12.3138 14.2857 12H12.2857C12.2857 11.8715 12.3265 11.8109 12.3093 11.844C12.2959 11.8697 12.2604 11.9265 12.1866 12.0157C12.0382 12.1952 11.8137 12.4121 11.5377 12.6528C11.2659 12.8899 10.9771 13.122 10.7068 13.3405C10.4589 13.541 10.1834 13.7637 10.007 13.9402L11.4216 15.354ZM12.2571 4H17.9143V2H12.2571V4ZM20 6.17647V17.8235H22V6.17647H20ZM17.9143 20H12.2571V22H17.9143V20ZM20 17.8235C20 19.0531 19.0391 20 17.9143 20V22C20.1979 22 22 20.1026 22 17.8235H20ZM17.9143 4C19.0391 4 20 4.94692 20 6.17647H22C22 3.89739 20.1979 2 17.9143 2V4Z" fill="white"/>
</svg>
