<svg width="24" height="24" viewBox="0 0 24 24" fill="none" xmlns="http://www.w3.org/2000/svg">
<path d="M10.7143 11C10.162 11 9.71429 11.4477 9.71429 12C9.71429 12.5523 10.162 13 10.7143 13V11ZM19.1359 8.64604C18.7455 8.2554 18.1123 8.25522 17.7217 8.64563C17.331 9.03605 17.3309 9.66921 17.7213 10.0598L19.1359 8.64604ZM17.7213 13.9402C17.3309 14.3308 17.331 14.964 17.7217 15.3544C18.1123 15.7448 18.7455 15.7446 19.1359 15.354L17.7213 13.9402ZM11.7429 4C12.2951 4 12.7429 3.55228 12.7429 3C12.7429 2.44772 12.2951 2 11.7429 2V4ZM11.7429 22C12.2951 22 12.7429 21.5523 12.7429 21C12.7429 20.4477 12.2951 20 11.7429 20V22ZM21 11H10.7143V13H21V11ZM22 12C22 11.6862 21.8951 11.4201 21.7981 11.2335C21.6972 11.0394 21.5685 10.8624 21.4418 10.7093C21.1894 10.4042 20.8685 10.1033 20.5667 9.84001C20.2606 9.57306 19.9391 9.31493 19.6785 9.10423C19.3955 8.87539 19.2196 8.72975 19.1359 8.64604L17.7213 10.0598C17.8977 10.2364 18.1732 10.459 18.4211 10.6595C18.6914 10.878 18.9802 11.1101 19.252 11.3472C19.528 11.5879 19.7524 11.8048 19.9009 11.9843C19.9747 12.0735 20.0102 12.1303 20.0236 12.156C20.0408 12.1891 20 12.1285 20 12H22ZM19.1359 15.354C19.2196 15.2702 19.3955 15.1246 19.6785 14.8958C19.9391 14.6851 20.2606 14.4269 20.5667 14.16C20.8685 13.8967 21.1894 13.5958 21.4418 13.2907C21.5685 13.1376 21.6972 12.9606 21.7981 12.7665C21.8951 12.5799 22 12.3138 22 12H20C20 11.8715 20.0408 11.8109 20.0236 11.844C20.0102 11.8697 19.9747 11.9265 19.9009 12.0157C19.7524 12.1952 19.528 12.4121 19.252 12.6528C18.9802 12.8899 18.6914 13.122 18.4211 13.3405C18.1732 13.541 17.8977 13.7637 17.7213 13.9402L19.1359 15.354ZM11.7429 2H6.08571V4H11.7429V2ZM2 6.17647V17.8235H4V6.17647H2ZM6.08571 22H11.7429V20H6.08571V22ZM2 17.8235C2 20.1026 3.80211 22 6.08571 22V20C4.96093 20 4 19.0531 4 17.8235H2ZM6.08571 2C3.80211 2 2 3.89739 2 6.17647H4C4 4.94692 4.96093 4 6.08571 4V2Z" fill="white"/>
</svg>
