<svg width="40" height="40" viewBox="0 0 40 40" fill="none" xmlns="http://www.w3.org/2000/svg">
<path d="M14 29.3333C14.8734 31.664 17.2294 33.3333 20 33.3333C22.7707 33.3333 25.1267 31.664 26 29.3333M29 16.9467V16.0067C29 10.848 24.968 6.66667 20 6.66667C15.032 6.66667 11 10.848 11 16.0067V16.9467C11.0016 18.0687 10.6814 19.1677 10.0774 20.1133L8.60002 22.4133C7.25202 24.5133 8.28135 27.368 10.6267 28.032C16.7551 29.7675 23.245 29.7675 29.3734 28.032C31.7187 27.368 32.748 24.5133 31.4 22.4147L29.9227 20.1147C29.3182 19.1692 28.9975 18.0702 28.9987 16.948L29 16.9467Z" stroke="white" stroke-width="2" stroke-linecap="round"/>
<circle cx="13" cy="9" r="5" fill="url(#paint0_linear_4082_4746)"/>
<defs>
<linearGradient id="paint0_linear_4082_4746" x1="8" y1="4" x2="19.2353" y2="5.66515" gradientUnits="userSpaceOnUse">
<stop stop-color="#C93134"/>
<stop offset="1" stop-color="#DE5658"/>
</linearGradient>
</defs>
</svg>
