<svg width="24" height="24" viewBox="0 0 24 24" fill="none" xmlns="http://www.w3.org/2000/svg">
<path d="M5.4 6.5C4.84772 6.5 4.4 6.94772 4.4 7.5C4.4 8.05228 4.84772 8.5 5.4 8.5V6.5ZM9.8 8.5C10.3523 8.5 10.8 8.05228 10.8 7.5C10.8 6.94772 10.3523 6.5 9.8 6.5V8.5ZM21.8923 15.3728L21.9506 16.3711L21.9547 16.3708L21.8923 15.3728ZM22.9978 14.3231L23.9955 14.3913L23.9959 14.3841L22.9978 14.3231ZM22.9978 9.67688L23.996 9.61588L23.9953 9.60679L22.9978 9.67688ZM21.8923 8.62725L21.9547 7.62919L21.9524 7.62905L21.8923 8.62725ZM20.6108 4.3185L19.8955 5.01731L19.8962 5.01806L20.6108 4.3185ZM20.6108 19.6815L19.8962 18.9819L19.8955 18.9827L20.6108 19.6815ZM18.5901 11C18.0378 11 17.5901 11.4477 17.5901 12C17.5901 12.5523 18.0378 13 18.5901 13V11ZM18.6011 13C19.1534 13 19.6011 12.5523 19.6011 12C19.6011 11.4477 19.1534 11 18.6011 11V13ZM5.4 8.5H9.8V6.5H5.4V8.5ZM21.7163 7.625H18.8541V9.625H21.7163V7.625ZM18.8541 7.625C16.3876 7.625 14.3 9.53558 14.3 12H16.3C16.3 10.7362 17.3936 9.625 18.8541 9.625V7.625ZM14.3 12C14.3 14.4644 16.3887 16.375 18.853 16.375V14.375C17.3947 14.375 16.3 13.2638 16.3 12H14.3ZM18.853 16.375H21.7163V14.375H18.853V16.375ZM21.7163 16.375C21.7945 16.375 21.8756 16.3754 21.9506 16.371L21.834 14.3745C21.8375 14.3742 21.8345 14.3746 21.8143 14.3748C21.793 14.375 21.7645 14.375 21.7163 14.375V16.375ZM21.9547 16.3708C23.0082 16.305 23.92 15.496 23.9955 14.3913L22.0001 14.255C21.999 14.271 21.9922 14.2942 21.9649 14.3201C21.9369 14.3467 21.8915 14.3709 21.8299 14.3747L21.9547 16.3708ZM23.9959 14.3841C24.0005 14.3099 24 14.2281 24 14.1566H22C22 14.202 22 14.2285 21.9998 14.2484C21.9996 14.2674 21.9993 14.2684 21.9997 14.2621L23.9959 14.3841ZM24 14.1566V9.84338H22V14.1566H24ZM24 9.84338C24 9.77193 24.0005 9.69012 23.9959 9.61588L21.9997 9.73787C21.9993 9.73164 21.9996 9.7326 21.9998 9.75161C22 9.77146 22 9.798 22 9.84338H24ZM23.9953 9.60679C23.9179 8.50517 23.0099 7.69515 21.9547 7.6292L21.8299 9.6253C21.8912 9.62914 21.9363 9.65315 21.9642 9.67963C21.9915 9.70557 21.999 9.72943 22.0003 9.74696L23.9953 9.60679ZM21.9524 7.62905C21.8772 7.62454 21.7934 7.625 21.7163 7.625V9.625C21.7645 9.625 21.7933 9.62501 21.8148 9.62523C21.8356 9.62544 21.8376 9.62577 21.8322 9.62544L21.9524 7.62905ZM22.8607 8.58429C22.7745 6.46974 22.5035 4.8223 21.3254 3.61894L19.8962 5.01806C20.4979 5.6327 20.7769 6.56826 20.8623 8.66571L22.8607 8.58429ZM21.3261 3.61969C20.4662 2.73949 19.3774 2.35478 18.0642 2.17414C16.782 1.99778 15.1451 2 13.1 2V4C15.203 4 16.6774 4.00222 17.7916 4.15548C18.8747 4.30447 19.4673 4.57901 19.8955 5.01731L21.3261 3.61969ZM13.1 2H9.8V4H13.1V2ZM9.8 2C7.75486 2 6.11797 1.99778 4.83583 2.17414C3.52259 2.35478 2.4338 2.73949 1.5739 3.61969L3.0045 5.01731C3.4327 4.57901 4.02526 4.30447 5.10837 4.15548C6.22258 4.00222 7.69705 4 9.8 4V2ZM1.5739 3.61969C0.717475 4.49632 0.345476 5.60011 0.170115 6.93229C-0.00175691 8.23796 0 9.90632 0 12H2C2 9.8513 2.00231 8.33816 2.15301 7.19331C2.30022 6.07495 2.57283 5.45918 3.0045 5.01731L1.5739 3.61969ZM0 12C0 14.0935 -0.00203359 15.7622 0.169686 17.068C0.34489 18.4003 0.716906 19.5046 1.57449 20.3809L3.00391 18.9821C2.57229 18.541 2.29971 17.9258 2.15261 16.8072C2.00203 15.6622 2 14.1489 2 12H0ZM1.57449 20.3809C2.43471 21.2599 3.52298 21.6446 4.83611 21.8254C6.11815 22.0019 7.75469 22 9.8 22V20C7.69721 20 6.22295 19.9975 5.10891 19.8441C4.02597 19.695 3.43289 19.4204 3.00391 18.9821L1.57449 20.3809ZM9.8 22H13.1V20H9.8V22ZM13.1 22C15.1451 22 16.782 22.0022 18.0642 21.8259C19.3774 21.6452 20.4662 21.2605 21.3261 20.3803L19.8955 18.9827C19.4673 19.421 18.8747 19.6955 17.7916 19.8445C16.6774 19.9978 15.203 20 13.1 20V22ZM21.3254 20.3811C22.5033 19.1778 22.7756 17.5308 22.8607 15.4152L20.8623 15.3348C20.778 17.4312 20.4981 18.3672 19.8962 18.9819L21.3254 20.3811ZM18.5901 13H18.6011V11H18.5901V13Z" fill="white"/>
</svg>
