<svg width="24" height="24" viewBox="0 0 24 24" fill="none" xmlns="http://www.w3.org/2000/svg">
<path d="M7.49994 19C8.15494 20.748 9.92194 22 11.9999 22C14.0779 22 15.8449 20.748 16.4999 19M18.7499 9.71V9.005C18.7499 5.136 15.7259 2 11.9999 2C8.27394 2 5.24994 5.136 5.24994 9.005V9.71C5.25114 10.5516 5.01098 11.3758 4.55794 12.085L3.44994 13.81C2.43894 15.385 3.21094 17.526 4.96994 18.024C9.56623 19.3257 14.4337 19.3257 19.0299 18.024C20.7889 17.526 21.5609 15.385 20.5499 13.811L19.4419 12.086C18.9885 11.3769 18.748 10.5527 18.7489 9.711L18.7499 9.71Z" stroke="white" stroke-width="2" stroke-linecap="round"/>
</svg>
