<svg width="32" height="32" viewBox="0 0 32 32" fill="none" xmlns="http://www.w3.org/2000/svg">
<rect width="32" height="32" rx="16" fill="#E0F5FF"/>
<path fill-rule="evenodd" clip-rule="evenodd" d="M6.79724 24.2239C9.92744 24.2239 12.294 20.1485 14.4156 15.6991C15.4368 13.542 16.389 11.2819 17.3411 9.36576C18.3868 7.24036 19.4594 5.74023 20.7717 5.74023C21.8842 5.74023 22.931 6.63859 23.9729 8.04623C26.133 10.9687 28.0001 15.918 28.0001 19.164C28.0001 21.8832 26.6004 24.2239 23.7319 24.2239H6.79724Z" fill="#64CDFF"/>
<path fill-rule="evenodd" clip-rule="evenodd" d="M14.4156 15.6994C12.2654 11.3647 11.2919 8.18422 9.39018 8.18422C8.20838 8.18422 6.87749 9.42342 5.67277 11.4541C4.38214 13.6091 3.36658 16.6498 3.36658 19.9217C3.36658 22.5053 4.6311 24.2241 6.79716 24.2241C9.92657 24.2241 12.294 20.1487 14.4156 15.6994Z" fill="#2855AF"/>
</svg>
