<svg width="32" height="32" viewBox="0 0 32 32" fill="none" xmlns="http://www.w3.org/2000/svg">
<g clip-path="url(#clip0_192_1851)">
<path d="M16.0003 31.9993C24.858 31.9993 32 24.8573 32 15.9997C32 7.14199 24.858 0 16.0003 0C7.14265 0 0.000651466 7.14199 0.000651466 15.9997C-0.0791474 24.8573 7.18255 31.9993 16.0003 31.9993Z" fill="#FED42B"/>
<mask id="mask0_192_1851" style="mask-type:luminance" maskUnits="userSpaceOnUse" x="0" y="0" width="32" height="32">
<path d="M16.0003 31.9993C24.858 31.9993 32 24.8573 32 15.9997C32 7.14199 24.858 0 16.0003 0C7.14265 0 0.000651466 7.14199 0.000651466 15.9997C-0.0791474 24.8573 7.18255 31.9993 16.0003 31.9993Z" fill="white"/>
</mask>
<g mask="url(#mask0_192_1851)">
<path d="M8.14011 8.77787L-5.9444 27.2114L-2.19385 31.4806L8.2598 17.6355L7.18252 25.2164L13.0477 27.2513L20.1897 15.8401C19.8705 17.9547 19.3518 22.8624 24.0201 24.3785C31.3616 26.6129 37.7854 13.4062 40.7379 6.7031L36.4687 4.46873C33.1571 11.4112 28.0499 19.0719 26.015 18.5532C23.9802 18.0345 25.8156 11.5309 26.9726 7.34149V7.22179L20.469 4.98743L12.6886 17.6754L13.7659 10.7329L8.14011 8.77787Z" fill="#1F1F1F"/>
</g>
</g>
<defs>
<clipPath id="clip0_192_1851">
<rect width="32" height="32" rx="16" fill="white"/>
</clipPath>
</defs>
</svg>
