<svg width="32" height="32" viewBox="0 0 32 32" fill="none" xmlns="http://www.w3.org/2000/svg">
<rect width="32" height="32" rx="16" fill="#CCCCCC"/>
<g clip-path="url(#clip0_194_4306)">
<path fill-rule="evenodd" clip-rule="evenodd" d="M4.69778 12.0168C6.12661 12.1712 7.28216 13.4323 7.42366 14.9915C7.61487 17.0982 6.00562 18.8543 4.07481 18.6456C2.64598 18.4912 1.49025 17.2303 1.34892 15.6711C1.15754 13.5642 2.76696 11.8083 4.69778 12.0168ZM4.59855 17.0933C5.32358 16.9928 5.90887 16.354 6.0012 15.5629C6.13634 14.4023 5.23779 13.4216 4.17404 13.5693C3.44901 13.6697 2.86354 14.3086 2.77138 15.0997C2.63625 16.2603 3.53479 17.241 4.59855 17.0933ZM13.531 12.1486C13.7006 12.1486 13.7972 12.3606 13.6946 12.508L10.6029 16.959H13.0253C13.4667 16.959 13.8145 17.3973 13.7229 17.897C13.6557 18.2632 13.3408 18.5134 12.9984 18.5134H8.14498C7.97694 18.5134 7.88125 18.3036 7.98278 18.1573L11.0769 13.7032H9.08863C8.74637 13.7032 8.43152 13.4529 8.36431 13.0866C8.27269 12.587 8.62043 12.1486 9.06192 12.1486H13.531ZM28.4562 12.1664C28.9172 12.0605 29.3233 12.4413 29.3233 12.9258V18.2893C29.3233 18.4763 29.1252 18.5809 28.9907 18.4645L25.1355 15.1271V17.7376C25.1355 18.222 24.7295 18.6029 24.2684 18.497C23.9378 18.4211 23.7111 18.0854 23.7111 17.7169V12.3727C23.7111 12.1857 23.909 12.0811 24.0434 12.1975L27.8987 15.5351V12.9465C27.8987 12.578 28.1256 12.2423 28.4562 12.1664ZM18.4181 12C20.7784 12 22.6919 13.491 22.6919 15.3304C22.6919 17.1697 20.7784 18.6607 18.4181 18.6607C16.0579 18.6607 14.1445 17.1697 14.1445 15.3304C14.1445 13.491 16.0579 12 18.4181 12ZM15.5691 15.3304C15.5691 16.1687 16.7875 17.1063 18.4181 17.1063C20.0488 17.1063 21.2671 16.1687 21.2671 15.3304C21.2671 14.4922 20.0488 13.5544 18.4181 13.5544C16.7875 13.5544 15.5691 14.492 15.5691 15.3304Z" fill="white"/>
</g>
<defs>
<clipPath id="clip0_194_4306">
<rect width="28" height="6.66667" fill="white" transform="translate(1.33331 12)"/>
</clipPath>
</defs>
</svg>
