<svg width="24" height="24" viewBox="0 0 24 24" fill="none" xmlns="http://www.w3.org/2000/svg">
<path d="M19.306 2H4.69362C3.34806 2 2.22656 3.11101 2.55899 4.41737C2.91304 5.80166 3.56503 7.09147 4.46917 8.19624C5.37331 9.30102 6.50769 10.194 7.79266 10.8124C8.79482 11.2934 9.56441 12.2384 9.56441 13.3519V20.7798C9.56452 20.9878 9.61764 21.1923 9.71874 21.374C9.81984 21.5557 9.96556 21.7084 10.1421 21.8178C10.3186 21.9271 10.52 21.9894 10.7273 21.9988C10.9346 22.0081 11.1408 21.9642 11.3264 21.8712L13.7618 20.6503C13.964 20.549 14.1342 20.3933 14.2531 20.2005C14.372 20.0077 14.4351 19.7855 14.4352 19.5589V13.3519C14.4352 12.2384 15.2048 11.2934 16.2057 10.8124C17.4912 10.1942 18.626 9.30142 19.5306 8.19663C20.4352 7.09185 21.0875 5.80189 21.4418 4.41737C21.7718 3.11101 20.6491 2 19.306 2Z" stroke="#999999" stroke-width="2"/>
</svg>
