<svg width="24" height="24" viewBox="0 0 24 24" fill="none" xmlns="http://www.w3.org/2000/svg">
<path d="M11.8679 4.812C10.3551 4.83895 8.88871 5.33267 7.67376 6.2241C6.45882 7.11552 5.55613 8.36006 5.09197 9.78362C4.62781 11.2072 4.62539 12.7386 5.08505 14.1636C5.54472 15.5885 6.44347 16.8359 7.6556 17.731C7.84036 17.868 7.9625 18.0719 7.99516 18.2979C8.02782 18.5239 7.96833 18.7535 7.82976 18.9362C7.69119 19.1188 7.4849 19.2395 7.25627 19.2718C7.02764 19.3041 6.7954 19.2453 6.61064 19.1083C5.14869 18.028 4.05367 16.5337 3.47092 14.8238C2.88817 13.1138 2.84525 11.2692 3.34786 9.53457C3.85047 7.79997 4.87483 6.25748 6.285 5.11185C7.69516 3.96621 9.42442 3.27161 11.2433 3.12022L10.5652 2.44764C10.4114 2.28446 10.3277 2.06863 10.3316 1.84562C10.3356 1.62262 10.427 1.40984 10.5866 1.25213C10.7461 1.09441 10.9613 1.00407 11.1869 1.00013C11.4125 0.996199 11.6309 1.07898 11.7959 1.23103L14.2597 3.6654C14.4228 3.8268 14.5144 4.04559 14.5144 4.27371C14.5144 4.50182 14.4228 4.72061 14.2597 4.88201L11.7959 7.31868C11.6309 7.47073 11.4125 7.55351 11.1869 7.54958C10.9613 7.54564 10.7461 7.4553 10.5866 7.29758C10.427 7.13987 10.3356 6.92709 10.3316 6.70409C10.3277 6.48108 10.4114 6.26525 10.5652 6.10207L11.8679 4.812ZM12.135 19.1565C13.6478 19.1296 15.1142 18.6359 16.3291 17.7444C17.5441 16.853 18.4468 15.6085 18.9109 14.1849C19.3751 12.7613 19.3775 11.23 18.9178 9.80497C18.4582 8.37999 17.5594 7.13267 16.3473 6.2375C16.1625 6.10052 16.0404 5.8966 16.0077 5.67059C15.9751 5.44458 16.0346 5.21501 16.1731 5.03237C16.3117 4.84973 16.518 4.72898 16.7466 4.6967C16.9752 4.66441 17.2075 4.72323 17.3922 4.86021C17.732 5.11271 18.056 5.39085 18.364 5.69462C19.577 6.8935 20.4181 8.41012 20.7881 10.0658C21.1581 11.7214 21.0418 13.4472 20.4527 15.0396C19.8636 16.6321 18.8264 18.0249 17.4632 19.0541C16.1 20.0832 14.4676 20.7057 12.7585 20.8483L13.4377 21.5197C13.5209 21.5991 13.5873 21.6941 13.633 21.7991C13.6786 21.9041 13.7027 22.017 13.7038 22.1313C13.7048 22.2456 13.6829 22.359 13.6391 22.4648C13.5954 22.5706 13.5308 22.6667 13.449 22.7476C13.3673 22.8284 13.2701 22.8924 13.1631 22.9357C13.0561 22.9791 12.9415 23.0009 12.8259 23C12.7102 22.999 12.596 22.9753 12.4897 22.9303C12.3834 22.8852 12.2873 22.8197 12.207 22.7375L9.74318 20.3031C9.58011 20.1417 9.48852 19.9229 9.48852 19.6948C9.48852 19.4667 9.58011 19.2479 9.74318 19.0865L12.207 16.651C12.2867 16.5664 12.3828 16.4986 12.4896 16.4515C12.5964 16.4045 12.7118 16.3792 12.8287 16.3772C12.9456 16.3751 13.0617 16.3964 13.1702 16.4397C13.2786 16.483 13.3771 16.5474 13.4598 16.6292C13.5425 16.7109 13.6077 16.8083 13.6515 16.9154C13.6952 17.0226 13.7168 17.1374 13.7147 17.253C13.7126 17.3686 13.687 17.4826 13.6394 17.5882C13.5918 17.6938 13.5232 17.7888 13.4377 17.8676L12.135 19.1565Z" fill="#999999"/>
</svg>
