<svg width="32" height="32" viewBox="0 0 32 32" fill="none" xmlns="http://www.w3.org/2000/svg">
<path d="M18.4102 14.1003L17.0592 13.4594C16.948 13.4074 16.8536 13.3236 16.7875 13.2181C16.7213 13.1126 16.6862 12.9898 16.6862 12.8643C16.6862 12.7389 16.7213 12.616 16.7875 12.5105C16.8536 12.405 16.948 12.3212 17.0592 12.2692L18.4102 11.6283L19.0347 10.255C19.0854 10.1408 19.167 10.044 19.2698 9.97615C19.3727 9.90828 19.4923 9.87218 19.6146 9.87218C19.7369 9.87218 19.8565 9.90828 19.9594 9.97615C20.0622 10.044 20.1438 10.1408 20.1945 10.255L20.819 11.6414L22.1572 12.2823C22.2685 12.3343 22.3628 12.4181 22.429 12.5236C22.4951 12.6291 22.5303 12.7519 22.5303 12.8774C22.5303 13.0029 22.4951 13.1257 22.429 13.2312C22.3628 13.3367 22.2685 13.4205 22.1572 13.4725L20.8063 14.1134L20.1818 15.4867C20.1311 15.6009 20.0494 15.6977 19.9466 15.7656C19.8438 15.8335 19.7241 15.8696 19.6019 15.8696C19.4796 15.8696 19.3599 15.8335 19.2571 15.7656C19.1543 15.6977 19.0726 15.6009 19.022 15.4867L18.4102 14.1003ZM6.1622 18.1026L6.78671 16.7162L8.13769 16.0753C8.24894 16.0233 8.34327 15.9395 8.40941 15.834C8.47556 15.7285 8.51073 15.6057 8.51073 15.4802C8.51073 15.3547 8.47556 15.2319 8.40941 15.1264C8.34327 15.0209 8.24894 14.9371 8.13769 14.8851L6.78671 14.2442L6.1622 12.8709C6.11308 12.7568 6.03272 12.6599 5.9309 12.5918C5.82908 12.5238 5.71019 12.4875 5.58868 12.4875C5.46717 12.4875 5.34827 12.5238 5.24645 12.5918C5.14463 12.6599 5.06428 12.7568 5.01515 12.8709L4.39064 14.2573L3.03967 14.8982C2.92841 14.9502 2.83408 15.0339 2.76794 15.1395C2.7018 15.245 2.66663 15.3678 2.66663 15.4933C2.66663 15.6187 2.7018 15.7415 2.76794 15.8471C2.83408 15.9526 2.92841 16.0364 3.03967 16.0884L4.39064 16.7293L5.01515 18.1026C5.23182 18.6127 5.94554 18.6127 6.1622 18.1026ZM11.9102 11.5499L12.7132 9.71876L14.4975 8.89476C14.6087 8.84274 14.703 8.75898 14.7692 8.65346C14.8353 8.54794 14.8705 8.42512 14.8705 8.29966C14.8705 8.17419 14.8353 8.05137 14.7692 7.94585C14.703 7.84033 14.6087 7.75657 14.4975 7.70455L12.7132 6.88055L11.9102 5.04945C11.8595 4.93528 11.7779 4.83848 11.6751 4.7706C11.5723 4.70272 11.4526 4.66663 11.3303 4.66663C11.2081 4.66663 11.0884 4.70272 10.9856 4.7706C10.8827 4.83848 10.8011 4.93528 10.7504 5.04945L9.94748 6.88055L8.16318 7.70455C8.05192 7.75657 7.95759 7.84033 7.89145 7.94585C7.8253 8.05137 7.79013 8.17419 7.79013 8.29966C7.79013 8.42512 7.8253 8.54794 7.89145 8.65346C7.95759 8.75898 8.05192 8.84274 8.16318 8.89476L9.94748 9.71876L10.7504 11.5499C10.9671 12.06 11.6808 12.06 11.9102 11.5499ZM28.9631 11.9161C28.8406 11.7908 28.6945 11.6923 28.5338 11.6268C28.3731 11.5613 28.201 11.53 28.0281 11.5349C27.8552 11.5398 27.6851 11.5808 27.5282 11.6553C27.3712 11.7298 27.2306 11.8363 27.1151 11.9684L18.971 21.3593L14.7779 17.0562C14.6599 16.935 14.5199 16.8388 14.3657 16.7732C14.2115 16.7075 14.0462 16.6737 13.8793 16.6737C13.7124 16.6737 13.5471 16.7075 13.3929 16.7732C13.2388 16.8388 13.0987 16.935 12.9808 17.0562L5.2828 24.9692C4.76025 25.5055 4.76025 26.3949 5.2828 26.9311C5.80534 27.4674 6.67201 27.4674 7.19455 26.9311L13.8857 20.0514L18.0278 24.3022C18.5504 24.8384 19.3916 24.8123 19.8759 24.2498L29.0141 13.6949C29.4601 13.1848 29.4347 12.4 28.9631 11.9161Z" fill="#6825DA"/>
</svg>
